<svg viewBox="0 0 24 24" fill="white">
  <path d="M12.004 0C5.376 0 0 5.375 0 12.002 0 18.63 5.376 24 12.004 24 18.63 24 24 18.63 24 12.002 24 5.375 18.63 0 12.004 0zm5.527 16.34h-1.225c-.46 0-.602-.369-1.422-1.197-.717-.702-1.035-.79-1.214-.79-.248 0-.317.07-.317.41v1.066c0 .29-.09.422-.797.422-1.182 0-2.493-.72-3.43-2.055-1.398-1.928-1.78-3.387-1.78-3.69 0-.17.07-.34.375-.34h1.224c.28 0 .383.12.49.43.528 1.507 1.426 2.827 1.79 2.827.14 0 .21-.07.21-.45v-1.8c-.04-.79-.46-.86-.46-1.14 0-.14.11-.28.3-.28h1.93c.258 0 .35.13.35.41v2.44c0 .26.11.36.18.36.14 0 .25-.1.5-.35.78-.86 1.34-2.18 1.34-2.18.07-.17.17-.33.46-.33h1.225c.33 0 .4.17.33.39-.14.65-.73 1.75-1.42 2.64-.18.24-.25.36 0 .64.34.41 1.44 1.49 1.44 1.96.02.33-.1.47-.39.47z"/>
</svg>
